<svg width="125" height="144" viewBox="0 0 125 144" fill="none" xmlns="http://www.w3.org/2000/svg">
<path d="M8.84745 41.8173L2.86167 48.2995C1.28121 50.011 1.38746 52.6796 3.09899 54.2601L53.1091 100.44C54.8206 102.021 57.4893 101.915 59.0698 100.203L65.0555 93.7209C66.636 92.0094 66.5297 89.3407 64.8182 87.7603L14.8081 41.5799C13.0966 39.9995 10.4279 40.1057 8.84745 41.8173Z" fill="white"/>
<path d="M65.6883 44.4208L59.7025 50.903C58.122 52.6145 58.2283 55.2832 59.9398 56.8636L109.95 103.044C111.661 104.624 114.33 104.518 115.911 102.807L121.896 96.3244C123.477 94.6129 123.371 91.9442 121.659 90.3638L71.6489 44.1835C69.9374 42.603 67.2687 42.7093 65.6883 44.4208Z" fill="white"/>
<path d="M56.063 5.73392L53.3118 2.98269C51.6645 1.33539 48.9937 1.33539 47.3464 2.98269L18.4138 31.9153C16.7665 33.5626 16.7665 36.2334 18.4138 37.8807L21.165 40.6319C22.8123 42.2792 25.4831 42.2792 27.1304 40.6319L56.063 11.6993C57.7103 10.052 57.7103 7.38121 56.063 5.73392Z" fill="white"/>
<path d="M104.911 106.12L102.159 103.368C100.512 101.721 97.8414 101.721 96.1941 103.368L67.2615 132.301C65.6142 133.948 65.6142 136.619 67.2615 138.266L70.0127 141.018C71.66 142.665 74.3308 142.665 75.9781 141.018L104.911 112.085C106.558 110.438 106.558 107.767 104.911 106.12Z" fill="white"/>
</svg>
