<svg width="22" height="24" viewBox="0 0 22 24" fill="none" xmlns="http://www.w3.org/2000/svg">
<path d="M18.2858 10.9707H3.88577C2.74963 10.9707 1.82861 11.8917 1.82861 13.0279V20.2279C1.82861 21.364 2.74963 22.285 3.88577 22.285H18.2858C19.422 22.285 20.343 21.364 20.343 20.2279V13.0279C20.343 11.8917 19.422 10.9707 18.2858 10.9707Z" stroke="#B5A380" stroke-width="2" stroke-linecap="round" stroke-linejoin="round"/>
<path d="M5.94385 10.9711V6.85675C5.94385 5.49277 6.48569 4.18466 7.45016 3.22018C8.41464 2.25571 9.72276 1.71387 11.0867 1.71387C12.4507 1.71387 13.7588 2.25571 14.7233 3.22018C15.6878 4.18466 16.2296 5.49277 16.2296 6.85675V10.9711" stroke="#B5A380" stroke-width="2" stroke-linecap="round" stroke-linejoin="round"/>
</svg>
